<svg xmlns="http://www.w3.org/2000/svg" viewBox="0 0 160 90" width="160" height="90"><rect width="160" height="90" fill="#F1EADC"/><line x1="18" y1="20" x2="150" y2="20" stroke="#241D17" stroke-width="2"/><line x1="38" y1="20" x2="38" y2="30" stroke="#241D17" stroke-width="1.5"/><path d="M26 34 Q38 28 50 34 L47 70 L29 70 Z" fill="#D9CDB8" fill-opacity="0.3" stroke="#D9CDB8" stroke-width="2"/><line x1="70" y1="20" x2="70" y2="30" stroke="#241D17" stroke-width="1.5"/><path d="M58 34 Q70 28 82 34 L79 70 L61 70 Z" fill="#B0805F" fill-opacity="0.3" stroke="#B0805F" stroke-width="2"/><line x1="102" y1="20" x2="102" y2="30" stroke="#241D17" stroke-width="1.5"/><path d="M90 34 Q102 28 114 34 L111 70 L93 70 Z" fill="#6B7355" fill-opacity="0.3" stroke="#6B7355" stroke-width="2"/><line x1="134" y1="20" x2="134" y2="30" stroke="#241D17" stroke-width="1.5"/><path d="M122 34 Q134 28 146 34 L143 70 L125 70 Z" fill="#2E3A4A" fill-opacity="0.3" stroke="#2E3A4A" stroke-width="2"/><text x="10" y="83" font-family="Georgia,serif" font-size="7.5" fill="#241D17" opacity="0.4" letter-spacing="3">ATELIER · STUDIO</text></svg>